<svg xmlns="http://www.w3.org/2000/svg" xmlns:xlink="http://www.w3.org/1999/xlink" id="terminal" width="847" baseProfile="full" version="1.1" viewBox="0 0 847 506"><defs><termtosvg:template_settings xmlns:termtosvg="https://github.com/nbedos/termtosvg"><termtosvg:screen_geometry columns="100" rows="25"/><termtosvg:animation type="css"/></termtosvg:template_settings><style id="generated-style" type="text/css">@keyframes roll{0%{transform:translateY(0)}3.755%{transform:translateY(-442px)}7.51%{transform:translateY(-884px)}9.576%{transform:translateY(-1326px)}13.331%{transform:translateY(-1768px)}17.086%{transform:translateY(-2210px)}20.841%{transform:translateY(-2652px)}24.033%{transform:translateY(-3094px)}27.788%{transform:translateY(-3536px)}31.543%{transform:translateY(-3978px)}35.299%{transform:translateY(-4420px)}39.054%{transform:translateY(-4862px)}42.809%{transform:translateY(-5304px)}42.922%{transform:translateY(-5746px)}46.677%{transform:translateY(-6188px)}46.752%{transform:translateY(-6630px)}47.052%{transform:translateY(-7072px)}47.24%{transform:translateY(-7514px)}47.653%{transform:translateY(-7956px)}48.104%{transform:translateY(-8398px)}48.367%{transform:translateY(-8840px)}48.629%{transform:translateY(-9282px)}49.869%{transform:translateY(-9724px)}50.207%{transform:translateY(-10166px)}53.962%{transform:translateY(-10608px)}54.375%{transform:translateY(-11050px)}58.13%{transform:translateY(-11492px)}58.693%{transform:translateY(-11934px)}62.448%{transform:translateY(-12376px)}}#screen{font-family:&apos;DejaVu Sans Mono&apos;,monospace;font-style:normal;font-size:14px}text{dominant-baseline:text-before-edge;white-space:pre}:root{--animation-duration:2663ms}#screen_view{animation-duration:2663ms;animation-iteration-count:infinite;animation-name:roll;animation-timing-function:steps(1,end);animation-fill-mode:forwards}</style><style id="user-style" type="text/css">.foreground{fill:#f8f8f2}.background{fill:#272822}.color1{fill:#f92672}.color2{fill:#a6e22e}.color3{fill:#f4bf75}.color7{fill:#f8f8f2}.color11{fill:#49483e}</style></defs><rect id="terminalui" width="100%" height="100%" class="background" ry="4.583"/><circle cx="24" cy="23" r="7" class="color1"/><circle cx="44" cy="23" r="7" class="color3"/><circle cx="64" cy="23" r="7" class="color2"/><svg id="screen" width="800" height="425" x="23" y="50" preserveAspectRatio="xMidYMin slice" viewBox="0 0 800 425"><rect width="100%" height="100%" x="0" y="0" class="background"/><defs><g id="g1"><text x="0" class="foreground" textLength="16">#</text></g><g id="g2"><text x="0" class="foreground" textLength="24"># b</text></g><g id="g3"><text x="0" class="foreground" textLength="32"># ba</text></g><g id="g4"><text x="0" class="foreground" textLength="40"># bas</text></g><g id="g5"><text x="0" class="foreground" textLength="48"># bash</text></g><g id="g6"><text x="0" class="foreground" textLength="56"># bash</text></g><g id="g7"><text x="0" class="foreground" textLength="64"># bash r</text></g><g id="g8"><text x="0" class="foreground" textLength="72"># bash ru</text></g><g id="g9"><text x="0" class="foreground" textLength="80"># bash run</text></g><g id="g10"><text x="0" class="foreground" textLength="88"># bash run.</text></g><g id="g11"><text x="0" class="foreground" textLength="96"># bash run.s</text></g><g id="g12"><text x="0" class="foreground" textLength="104"># bash run.sh</text></g><g id="g13"><text x="0" class="foreground" textLength="104"># bash run.sh</text></g><g id="g15"><text x="0" class="foreground" textLength="136">starting service</text><text x="136" class="color11" font-weight="bold" textLength="96">gRPCFrontend</text><text x="232" class="foreground" textLength="48">with</text><text x="280" class="color11" font-weight="bold" textLength="8">1</text><text x="288" class="foreground" textLength="96">replicas...</text></g><g id="g16"><text x="0" class="foreground" textLength="136">starting service</text><text x="136" class="color11" font-weight="bold" textLength="96">Preprocessor</text><text x="232" class="foreground" textLength="48">with</text><text x="280" class="color11" font-weight="bold" textLength="8">1</text><text x="288" class="foreground" textLength="96">replicas...</text></g><g id="g17"><text x="0" class="foreground" textLength="136">starting service</text><text x="136" class="color11" font-weight="bold" textLength="56">Encoder</text><text x="192" class="foreground" textLength="48">with</text><text x="240" class="color11" font-weight="bold" textLength="8">1</text><text x="248" class="foreground" textLength="96">replicas...</text></g><g id="g18"><text x="0" class="foreground" textLength="136">starting service</text><text x="136" class="color11" font-weight="bold" textLength="56">Indexer</text><text x="192" class="foreground" textLength="48">with</text><text x="240" class="color11" font-weight="bold" textLength="8">1</text><text x="248" class="foreground" textLength="96">replicas...</text></g><g id="g19"><text x="0" class="foreground" textLength="800">usage: /usr/local/bin/gnes encode --yaml_path gpt2.yml --port_in 55578 --socket_in PULL_CONNECT --po</text></g><g id="g20"><text x="0" class="foreground" textLength="280">rt_out 63182 --socket_out PUSH_BIND</text></g><g id="g21"><text x="0" class="foreground" textLength="400">__________________________________________________</text></g><g id="g22"><text x="64" class="color3" textLength="24">cli</text><text x="88" class="foreground" textLength="72">= encode</text></g><g id="g23"><text x="0" class="color3" textLength="104">dump_interval</text><text x="104" class="foreground" textLength="32">= 5</text></g><g id="g24"><text x="32" class="color3" textLength="56">host_in</text><text x="88" class="foreground" textLength="80">= 0.0.0.0</text></g><g id="g25"><text x="24" class="color3" textLength="64">host_out</text><text x="88" class="foreground" textLength="80">= 0.0.0.0</text></g><g id="g26"><text x="16" class="color3" textLength="72">port_ctrl</text><text x="88" class="foreground" textLength="56">= None</text></g><g id="g27"><text x="32" class="color3" textLength="56">port_in</text><text x="88" class="foreground" textLength="64">= 55578</text></g><g id="g28"><text x="24" class="color3" textLength="64">port_out</text><text x="88" class="foreground" textLength="64">= 63182</text></g><g id="g29"><text x="16" class="color3" textLength="72">read_only</text><text x="88" class="foreground" textLength="64">= False</text></g><g id="g30"><text x="16" class="color3" textLength="72">socket_in</text><text x="88" class="foreground" textLength="120">= PULL_CONNECT</text></g><g id="g31"><text x="8" class="color3" textLength="80">socket_out</text><text x="88" class="foreground" textLength="96">= PUSH_BIND</text></g><g id="g32"><text x="32" class="color3" textLength="56">timeout</text><text x="88" class="foreground" textLength="40">= -1</text></g><g id="g33"><text x="32" class="color3" textLength="56">verbose</text><text x="88" class="foreground" textLength="64">= False</text></g><g id="g34"><text x="16" class="color3" textLength="72">yaml_path</text><text x="88" class="foreground" textLength="512">= &lt;_io.TextIOWrapper name=&apos;gpt2.yml&apos; mode=&apos;r&apos; encoding=&apos;UTF-8&apos;&gt;</text></g><g id="g35"><text x="0" class="foreground" textLength="248">I:EncoderService:[bas:_ru:244]:</text><text x="248" class="color7" textLength="120">bind sockets...</text></g><g id="g36"><text x="0" class="foreground" textLength="800">usage: /usr/local/bin/gnes index --yaml_path b-indexer.yml --port_in 63182 --socket_in PULL_CONNECT</text></g><g id="g37"><text x="0" class="foreground" textLength="312">--port_out 59284 --socket_out PUSH_BIND</text></g><g id="g38"><text x="64" class="color3" textLength="24">cli</text><text x="88" class="foreground" textLength="64">= index</text></g><g id="g39"><text x="32" class="color3" textLength="56">port_in</text><text x="88" class="foreground" textLength="64">= 63182</text></g><g id="g40"><text x="24" class="color3" textLength="64">port_out</text><text x="88" class="foreground" textLength="64">= 59284</text></g><g id="g41"><text x="16" class="color3" textLength="72">yaml_path</text><text x="88" class="foreground" textLength="552">= &lt;_io.TextIOWrapper name=&apos;b-indexer.yml&apos; mode=&apos;r&apos; encoding=&apos;UTF-8&apos;&gt;</text></g><g id="g42"><text x="0" class="foreground" textLength="248">I:IndexerService:[bas:_ru:244]:</text><text x="248" class="color7" textLength="120">bind sockets...</text></g><g id="g43"><text x="0" class="foreground" textLength="800">usage: /usr/local/bin/gnes preprocess --yaml_path text-prep.yml --port_in 57480 --socket_in PULL_CON</text></g><g id="g44"><text x="0" class="foreground" textLength="352">NECT --port_out 55578 --socket_out PUSH_BIND</text></g><g id="g45"><text x="64" class="color3" textLength="24">cli</text><text x="88" class="foreground" textLength="104">= preprocess</text></g><g id="g46"><text x="24" class="color3" textLength="64">host_out</text></g><g id="g47"><text x="16" class="color3" textLength="72">read_only</text><text x="88" class="foreground" textLength="56">= True</text></g><g id="g48"><text x="16" class="color3" textLength="72">yaml_path</text><text x="88" class="foreground" textLength="552">= &lt;_io.TextIOWrapper name=&apos;text-prep.yml&apos; mode=&apos;r&apos; encoding=&apos;UTF-8&apos;&gt;</text></g><g id="g49"><text x="0" class="foreground" textLength="288">I:PreprocessorService:[bas:_ru:244]:</text><text x="288" class="color7" textLength="120">bind sockets...</text></g><g id="g50"><text x="0" class="foreground" textLength="800">usage: /usr/local/bin/gnes frontend --grpc_port 5566 --port_out 57480 --socket_out PUSH_BIND --port_</text></g><g id="g51"><text x="0" class="foreground" textLength="264">in 59284 --socket_in PULL_CONNECT</text></g><g id="g52"><text x="64" class="color3" textLength="24">cli</text><text x="88" class="foreground" textLength="88">= frontend</text></g><g id="g53"><text x="16" class="color3" textLength="72">grpc_host</text><text x="88" class="foreground" textLength="80">= 0.0.0.0</text></g><g id="g54"><text x="16" class="color3" textLength="72">grpc_port</text><text x="88" class="foreground" textLength="56">= 5566</text></g><g id="g55"><text x="0" class="color3" textLength="120">max_concurrency</text><text x="120" class="foreground" textLength="40">= 10</text></g><g id="g56"><text x="0" class="color3" textLength="128">max_receive_size</text><text x="128" class="foreground" textLength="48">= 100</text></g><g id="g57"><text x="0" class="color3" textLength="104">max_send_size</text><text x="104" class="foreground" textLength="48">= 100</text></g><g id="g58"><text x="32" class="color3" textLength="56">port_in</text><text x="88" class="foreground" textLength="64">= 59284</text></g><g id="g59"><text x="24" class="color3" textLength="64">port_out</text><text x="88" class="foreground" textLength="64">= 57480</text></g><g id="g60"><text x="16" class="color3" textLength="72">socket_in</text><text x="88" class="foreground" textLength="40">= PU</text></g><g id="g61"><text x="0" class="foreground" textLength="232">I:GRPCFrontend:[grp:__i:150]:</text><text x="232" class="color7" textLength="280">start a grpc server with 10 workers</text></g><g id="g62"><text x="0" class="foreground" textLength="232">I:GRPCFrontend:[grp:__e:159]:</text><text x="232" class="color7" textLength="336">grpc service is listening at: 0.0.0.0:5566</text></g><g id="g63"><text x="0" class="foreground" textLength="248">I:IndexerService:[bas:_ru:256]:</text><text x="248" class="color7" textLength="112">input 0.0.0.0:</text><text x="360" class="color3" textLength="40">63182</text><text x="448" class="foreground" textLength="128">output 0.0.0.0:</text><text x="576" class="color3" textLength="40">59284</text><text x="640" class="foreground" textLength="112">control over</text><text x="752" class="color3" textLength="48">tcp://</text></g><g id="g64"><text x="0" class="color3" textLength="104">0.0.0.0:43721</text></g><g id="g65"><text x="0" class="foreground" textLength="288">I:PreprocessorService:[bas:_ru:256]:</text><text x="288" class="color7" textLength="112">input 0.0.0.0:</text><text x="400" class="color3" textLength="40">57480</text><text x="448" class="foreground" textLength="128">output 0.0.0.0:</text><text x="576" class="color3" textLength="40">55578</text><text x="640" class="foreground" textLength="112">control over</text><text x="752" class="color3" textLength="48">tcp://</text></g><g id="g66"><text x="0" class="color3" textLength="104">0.0.0.0:37049</text></g><g id="g67"><text x="0" class="foreground" textLength="248">I:EncoderService:[bas:_ru:256]:</text><text x="248" class="color7" textLength="112">input 0.0.0.0:</text><text x="360" class="color3" textLength="40">55578</text><text x="448" class="foreground" textLength="128">output 0.0.0.0:</text><text x="576" class="color3" textLength="40">63182</text><text x="640" class="foreground" textLength="112">control over</text><text x="752" class="color3" textLength="48">tcp://</text></g><g id="g68"><text x="0" class="color3" textLength="104">0.0.0.0:44653</text></g><g id="g69"><text x="0" class="foreground" textLength="200">W:BIndexer:[__i:pos: 57]:</text><text x="200" class="color1" textLength="560">fail to load model from /out_data/idx.binary, will create an empty one</text></g><g id="g70"><text x="0" class="foreground" textLength="200">I:BIndexer:[__i:_ge:317]:</text><text x="200" class="color7" textLength="304">initialize BIndexer from a yaml config</text></g><g id="g71"><text x="0" class="foreground" textLength="248">I:IndexerService:[bas:_ru:267]:</text><text x="248" class="color7" textLength="152">ready and listening</text></g><g id="g72"><text x="0" class="foreground" textLength="224">W:GPT2Encoder:[__i:_po:174]:</text><text x="224" class="color1" textLength="576">this object is not named (&quot;- gnes_config: - name&quot; is not found in YAML c</text></g><g id="g73"><text x="0" class="color1" textLength="800">onfig), i will call it as &quot;GPT2Encoder-1ec80858&quot;. naming the object is important especially when you</text></g><g id="g74"><text x="0" class="color1" textLength="424">need to serialize/deserialize/store/load the object.</text></g><g id="g75"><text x="0" class="foreground" textLength="264">I:TextPreprocessor:[__i:_ge:317]:</text><text x="264" class="color7" textLength="368">initialize TextPreprocessor from a yaml config</text></g><g id="g76"><text x="0" class="foreground" textLength="288">I:PreprocessorService:[bas:_ru:267]:</text><text x="288" class="color7" textLength="152">ready and listening</text></g><g id="g77"><text x="0" class="foreground" textLength="224">I:GPT2Encoder:[__i:_ge:317]:</text><text x="224" class="color7" textLength="328">initialize GPT2Encoder from a yaml config</text></g><g id="g78"><text x="0" class="foreground" textLength="256">W:PCALocalEncoder:[__i:_po:174]:</text><text x="256" class="color1" textLength="544">this object is not named (&quot;- gnes_config: - name&quot; is not found in YA</text></g><g id="g79"><text x="0" class="color1" textLength="800">ML config), i will call it as &quot;PCALocalEncoder-23915bcb&quot;. naming the object is important especially</text></g><g id="g80"><text x="0" class="color1" textLength="488">when you need to serialize/deserialize/store/load the object.</text></g><g id="g81"><text x="0" class="foreground" textLength="256">I:PCALocalEncoder:[__i:_ge:317]:</text><text x="256" class="color7" textLength="360">initialize PCALocalEncoder from a yaml config</text></g><g id="g82"><text x="0" class="foreground" textLength="208">W:PQEncoder:[__i:_po:174]:</text><text x="208" class="color1" textLength="592">this object is not named (&quot;- gnes_config: - name&quot; is not found in YAML con</text></g><g id="g83"><text x="0" class="color1" textLength="800">fig), i will call it as &quot;PQEncoder-80feaabf&quot;. naming the object is important especially when you nee</text></g><g id="g84"><text x="0" class="color1" textLength="392">d to serialize/deserialize/store/load the object.</text></g><g id="g85"><text x="0" class="foreground" textLength="208">I:PQEncoder:[__i:_ge:317]:</text><text x="208" class="color7" textLength="312">initialize PQEncoder from a yaml config</text></g><g id="g86"><text x="0" class="foreground" textLength="256">I:PipelineEncoder:[__i:_ge:317]:</text><text x="256" class="color7" textLength="360">initialize PipelineEncoder from a yaml config</text></g><g id="g87"><text x="0" class="foreground" textLength="248">I:EncoderService:[bas:_ru:267]:</text><text x="248" class="color7" textLength="152">ready and listening</text></g><g id="g88"><text x="0" class="foreground" textLength="16">^C</text></g><g id="g89"><text x="0" class="foreground" textLength="16">^C</text></g><g id="g90"><text x="0" class="foreground" textLength="16">#</text></g></defs><g id="screen_view"><g><rect width="8" height="17" x="16" y="0" class="foreground"/><use y="0" xlink:href="#g1"/></g><g><rect width="8" height="17" x="24" y="442" class="foreground"/><use y="442" xlink:href="#g2"/></g><g><rect width="8" height="17" x="32" y="884" class="foreground"/><use y="884" xlink:href="#g3"/></g><g><rect width="8" height="17" x="40" y="1326" class="foreground"/><use y="1326" xlink:href="#g4"/></g><g><rect width="8" height="17" x="48" y="1768" class="foreground"/><use y="1768" xlink:href="#g5"/></g><g><rect width="8" height="17" x="56" y="2210" class="foreground"/><use y="2210" xlink:href="#g6"/></g><g><rect width="8" height="17" x="64" y="2652" class="foreground"/><use y="2652" xlink:href="#g7"/></g><g><rect width="8" height="17" x="72" y="3094" class="foreground"/><use y="3094" xlink:href="#g8"/></g><g><rect width="8" height="17" x="80" y="3536" class="foreground"/><use y="3536" xlink:href="#g9"/></g><g><rect width="8" height="17" x="88" y="3978" class="foreground"/><use y="3978" xlink:href="#g10"/></g><g><rect width="8" height="17" x="96" y="4420" class="foreground"/><use y="4420" xlink:href="#g11"/></g><g><rect width="8" height="17" x="104" y="4862" class="foreground"/><use y="4862" xlink:href="#g12"/></g><g><use y="5304" xlink:href="#g13"/><rect width="8" height="17" x="0" y="5321" class="foreground"/><use y="5321" xlink:href="#g14"/></g><g><use y="5746" xlink:href="#g13"/><use y="5763" xlink:href="#g15"/><use y="5780" xlink:href="#g16"/><use y="5797" xlink:href="#g17"/><use y="5814" xlink:href="#g18"/><rect width="8" height="17" x="0" y="5831" class="foreground"/><use y="5831" xlink:href="#g14"/></g><g><use y="6188" xlink:href="#g13"/><use y="6205" xlink:href="#g15"/><use y="6222" xlink:href="#g16"/><use y="6239" xlink:href="#g17"/><use y="6256" xlink:href="#g18"/><use y="6273" xlink:href="#g19"/><use y="6290" xlink:href="#g20"/><use y="6307" xlink:href="#g21"/><use y="6324" xlink:href="#g22"/><use y="6341" xlink:href="#g23"/><use y="6358" xlink:href="#g24"/><use y="6375" xlink:href="#g25"/><use y="6392" xlink:href="#g26"/><use y="6409" xlink:href="#g27"/><use y="6426" xlink:href="#g28"/><use y="6443" xlink:href="#g29"/><use y="6460" xlink:href="#g30"/><use y="6477" xlink:href="#g31"/><use y="6494" xlink:href="#g32"/><use y="6511" xlink:href="#g33"/><use y="6528" xlink:href="#g34"/><rect width="8" height="17" x="0" y="6562" class="foreground"/><use y="6562" xlink:href="#g14"/></g><g><use y="6630" xlink:href="#g13"/><use y="6647" xlink:href="#g15"/><use y="6664" xlink:href="#g16"/><use y="6681" xlink:href="#g17"/><use y="6698" xlink:href="#g18"/><use y="6715" xlink:href="#g19"/><use y="6732" xlink:href="#g20"/><use y="6749" xlink:href="#g21"/><use y="6766" xlink:href="#g22"/><use y="6783" xlink:href="#g23"/><use y="6800" xlink:href="#g24"/><use y="6817" xlink:href="#g25"/><use y="6834" xlink:href="#g26"/><use y="6851" xlink:href="#g27"/><use y="6868" xlink:href="#g28"/><use y="6885" xlink:href="#g29"/><use y="6902" xlink:href="#g30"/><use y="6919" xlink:href="#g31"/><use y="6936" xlink:href="#g32"/><use y="6953" xlink:href="#g33"/><use y="6970" xlink:href="#g34"/><use y="7004" xlink:href="#g35"/><rect width="8" height="17" x="0" y="7021" class="foreground"/><use y="7021" xlink:href="#g14"/></g><g><use y="7072" xlink:href="#g36"/><use y="7089" xlink:href="#g37"/><use y="7106" xlink:href="#g21"/><use y="7123" xlink:href="#g38"/><use y="7140" xlink:href="#g23"/><use y="7157" xlink:href="#g24"/><use y="7174" xlink:href="#g25"/><use y="7191" xlink:href="#g26"/><use y="7208" xlink:href="#g39"/><use y="7225" xlink:href="#g40"/><use y="7242" xlink:href="#g29"/><use y="7259" xlink:href="#g30"/><use y="7276" xlink:href="#g31"/><use y="7293" xlink:href="#g32"/><use y="7310" xlink:href="#g33"/><use y="7327" xlink:href="#g41"/><use y="7361" xlink:href="#g42"/><use y="7378" xlink:href="#g43"/><use y="7395" xlink:href="#g44"/><use y="7412" xlink:href="#g21"/><use y="7429" xlink:href="#g45"/><use y="7446" xlink:href="#g23"/><use y="7463" xlink:href="#g24"/><rect width="8" height="17" x="88" y="7480" class="color3"/><use y="7480" xlink:href="#g46"/></g><g><use y="7514" xlink:href="#g47"/><use y="7531" xlink:href="#g30"/><use y="7548" xlink:href="#g31"/><use y="7565" xlink:href="#g32"/><use y="7582" xlink:href="#g33"/><use y="7599" xlink:href="#g48"/><use y="7633" xlink:href="#g49"/><use y="7650" xlink:href="#g50"/><use y="7667" xlink:href="#g51"/><use y="7684" xlink:href="#g21"/><use y="7701" xlink:href="#g52"/><use y="7718" xlink:href="#g23"/><use y="7735" xlink:href="#g53"/><use y="7752" xlink:href="#g54"/><use y="7769" xlink:href="#g24"/><use y="7786" xlink:href="#g25"/><use y="7803" xlink:href="#g55"/><use y="7820" xlink:href="#g56"/><use y="7837" xlink:href="#g57"/><use y="7854" xlink:href="#g26"/><use y="7871" xlink:href="#g58"/><use y="7888" xlink:href="#g59"/><use y="7905" xlink:href="#g47"/><rect width="8" height="17" x="128" y="7922" class="foreground"/><use y="7922" xlink:href="#g60"/></g><g><use y="7956" xlink:href="#g49"/><use y="7973" xlink:href="#g50"/><use y="7990" xlink:href="#g51"/><use y="8007" xlink:href="#g21"/><use y="8024" xlink:href="#g52"/><use y="8041" xlink:href="#g23"/><use y="8058" xlink:href="#g53"/><use y="8075" xlink:href="#g54"/><use y="8092" xlink:href="#g24"/><use y="8109" xlink:href="#g25"/><use y="8126" xlink:href="#g55"/><use y="8143" xlink:href="#g56"/><use y="8160" xlink:href="#g57"/><use y="8177" xlink:href="#g26"/><use y="8194" xlink:href="#g58"/><use y="8211" xlink:href="#g59"/><use y="8228" xlink:href="#g47"/><use y="8245" xlink:href="#g30"/><use y="8262" xlink:href="#g31"/><use y="8279" xlink:href="#g32"/><use y="8296" xlink:href="#g33"/><use y="8330" xlink:href="#g61"/><use y="8347" xlink:href="#g62"/><rect width="8" height="17" x="0" y="8364" class="foreground"/><use y="8364" xlink:href="#g14"/></g><g><use y="8398" xlink:href="#g53"/><use y="8415" xlink:href="#g54"/><use y="8432" xlink:href="#g24"/><use y="8449" xlink:href="#g25"/><use y="8466" xlink:href="#g55"/><use y="8483" xlink:href="#g56"/><use y="8500" xlink:href="#g57"/><use y="8517" xlink:href="#g26"/><use y="8534" xlink:href="#g58"/><use y="8551" xlink:href="#g59"/><use y="8568" xlink:href="#g47"/><use y="8585" xlink:href="#g30"/><use y="8602" xlink:href="#g31"/><use y="8619" xlink:href="#g32"/><use y="8636" xlink:href="#g33"/><use y="8670" xlink:href="#g61"/><use y="8687" xlink:href="#g62"/><use y="8704" xlink:href="#g63"/><use y="8721" xlink:href="#g64"/><use y="8738" xlink:href="#g65"/><use y="8755" xlink:href="#g66"/><use y="8772" xlink:href="#g67"/><use y="8789" xlink:href="#g68"/><rect width="8" height="17" x="0" y="8806" class="foreground"/><use y="8806" xlink:href="#g14"/></g><g><use y="8840" xlink:href="#g54"/><use y="8857" xlink:href="#g24"/><use y="8874" xlink:href="#g25"/><use y="8891" xlink:href="#g55"/><use y="8908" xlink:href="#g56"/><use y="8925" xlink:href="#g57"/><use y="8942" xlink:href="#g26"/><use y="8959" xlink:href="#g58"/><use y="8976" xlink:href="#g59"/><use y="8993" xlink:href="#g47"/><use y="9010" xlink:href="#g30"/><use y="9027" xlink:href="#g31"/><use y="9044" xlink:href="#g32"/><use y="9061" xlink:href="#g33"/><use y="9095" xlink:href="#g61"/><use y="9112" xlink:href="#g62"/><use y="9129" xlink:href="#g63"/><use y="9146" xlink:href="#g64"/><use y="9163" xlink:href="#g65"/><use y="9180" xlink:href="#g66"/><use y="9197" xlink:href="#g67"/><use y="9214" xlink:href="#g68"/><rect width="560" height="17" x="200" y="9231" class="color3"/><use y="9231" xlink:href="#g69"/><rect width="8" height="17" x="0" y="9248" class="foreground"/><use y="9248" xlink:href="#g14"/></g><g><use y="9282" xlink:href="#g57"/><use y="9299" xlink:href="#g26"/><use y="9316" xlink:href="#g58"/><use y="9333" xlink:href="#g59"/><use y="9350" xlink:href="#g47"/><use y="9367" xlink:href="#g30"/><use y="9384" xlink:href="#g31"/><use y="9401" xlink:href="#g32"/><use y="9418" xlink:href="#g33"/><use y="9452" xlink:href="#g61"/><use y="9469" xlink:href="#g62"/><use y="9486" xlink:href="#g63"/><use y="9503" xlink:href="#g64"/><use y="9520" xlink:href="#g65"/><use y="9537" xlink:href="#g66"/><use y="9554" xlink:href="#g67"/><use y="9571" xlink:href="#g68"/><rect width="560" height="17" x="200" y="9588" class="color3"/><use y="9588" xlink:href="#g69"/><use y="9605" xlink:href="#g70"/><use y="9622" xlink:href="#g71"/><rect width="576" height="17" x="224" y="9639" class="color3"/><use y="9639" xlink:href="#g72"/><rect width="800" height="17" x="0" y="9656" class="color3"/><use y="9656" xlink:href="#g73"/><rect width="424" height="17" x="0" y="9673" class="color3"/><use y="9673" xlink:href="#g74"/><rect width="8" height="17" x="0" y="9690" class="foreground"/><use y="9690" xlink:href="#g14"/></g><g><use y="9724" xlink:href="#g26"/><use y="9741" xlink:href="#g58"/><use y="9758" xlink:href="#g59"/><use y="9775" xlink:href="#g47"/><use y="9792" xlink:href="#g30"/><use y="9809" xlink:href="#g31"/><use y="9826" xlink:href="#g32"/><use y="9843" xlink:href="#g33"/><use y="9877" xlink:href="#g61"/><use y="9894" xlink:href="#g62"/><use y="9911" xlink:href="#g63"/><use y="9928" xlink:href="#g64"/><use y="9945" xlink:href="#g65"/><use y="9962" xlink:href="#g66"/><use y="9979" xlink:href="#g67"/><use y="9996" xlink:href="#g68"/><rect width="560" height="17" x="200" y="10013" class="color3"/><use y="10013" xlink:href="#g69"/><use y="10030" xlink:href="#g70"/><use y="10047" xlink:href="#g71"/><rect width="576" height="17" x="224" y="10064" class="color3"/><use y="10064" xlink:href="#g72"/><rect width="800" height="17" x="0" y="10081" class="color3"/><use y="10081" xlink:href="#g73"/><rect width="424" height="17" x="0" y="10098" class="color3"/><use y="10098" xlink:href="#g74"/><use y="10115" xlink:href="#g75"/><rect width="8" height="17" x="0" y="10132" class="foreground"/><use y="10132" xlink:href="#g14"/></g><g><use y="10166" xlink:href="#g58"/><use y="10183" xlink:href="#g59"/><use y="10200" xlink:href="#g47"/><use y="10217" xlink:href="#g30"/><use y="10234" xlink:href="#g31"/><use y="10251" xlink:href="#g32"/><use y="10268" xlink:href="#g33"/><use y="10302" xlink:href="#g61"/><use y="10319" xlink:href="#g62"/><use y="10336" xlink:href="#g63"/><use y="10353" xlink:href="#g64"/><use y="10370" xlink:href="#g65"/><use y="10387" xlink:href="#g66"/><use y="10404" xlink:href="#g67"/><use y="10421" xlink:href="#g68"/><rect width="560" height="17" x="200" y="10438" class="color3"/><use y="10438" xlink:href="#g69"/><use y="10455" xlink:href="#g70"/><use y="10472" xlink:href="#g71"/><rect width="576" height="17" x="224" y="10489" class="color3"/><use y="10489" xlink:href="#g72"/><rect width="800" height="17" x="0" y="10506" class="color3"/><use y="10506" xlink:href="#g73"/><rect width="424" height="17" x="0" y="10523" class="color3"/><use y="10523" xlink:href="#g74"/><use y="10540" xlink:href="#g75"/><use y="10557" xlink:href="#g76"/><rect width="8" height="17" x="0" y="10574" class="foreground"/><use y="10574" xlink:href="#g14"/></g><g><use y="10608" xlink:href="#g59"/><use y="10625" xlink:href="#g47"/><use y="10642" xlink:href="#g30"/><use y="10659" xlink:href="#g31"/><use y="10676" xlink:href="#g32"/><use y="10693" xlink:href="#g33"/><use y="10727" xlink:href="#g61"/><use y="10744" xlink:href="#g62"/><use y="10761" xlink:href="#g63"/><use y="10778" xlink:href="#g64"/><use y="10795" xlink:href="#g65"/><use y="10812" xlink:href="#g66"/><use y="10829" xlink:href="#g67"/><use y="10846" xlink:href="#g68"/><rect width="560" height="17" x="200" y="10863" class="color3"/><use y="10863" xlink:href="#g69"/><use y="10880" xlink:href="#g70"/><use y="10897" xlink:href="#g71"/><rect width="576" height="17" x="224" y="10914" class="color3"/><use y="10914" xlink:href="#g72"/><rect width="800" height="17" x="0" y="10931" class="color3"/><use y="10931" xlink:href="#g73"/><rect width="424" height="17" x="0" y="10948" class="color3"/><use y="10948" xlink:href="#g74"/><use y="10965" xlink:href="#g75"/><use y="10982" xlink:href="#g76"/><use y="10999" xlink:href="#g77"/><rect width="8" height="17" x="0" y="11016" class="foreground"/><use y="11016" xlink:href="#g14"/></g><g><use y="11050" xlink:href="#g64"/><use y="11067" xlink:href="#g65"/><use y="11084" xlink:href="#g66"/><use y="11101" xlink:href="#g67"/><use y="11118" xlink:href="#g68"/><rect width="560" height="17" x="200" y="11135" class="color3"/><use y="11135" xlink:href="#g69"/><use y="11152" xlink:href="#g70"/><use y="11169" xlink:href="#g71"/><rect width="576" height="17" x="224" y="11186" class="color3"/><use y="11186" xlink:href="#g72"/><rect width="800" height="17" x="0" y="11203" class="color3"/><use y="11203" xlink:href="#g73"/><rect width="424" height="17" x="0" y="11220" class="color3"/><use y="11220" xlink:href="#g74"/><use y="11237" xlink:href="#g75"/><use y="11254" xlink:href="#g76"/><use y="11271" xlink:href="#g77"/><rect width="544" height="17" x="256" y="11288" class="color3"/><use y="11288" xlink:href="#g78"/><rect width="800" height="17" x="0" y="11305" class="color3"/><use y="11305" xlink:href="#g79"/><rect width="488" height="17" x="0" y="11322" class="color3"/><use y="11322" xlink:href="#g80"/><use y="11339" xlink:href="#g81"/><rect width="592" height="17" x="208" y="11356" class="color3"/><use y="11356" xlink:href="#g82"/><rect width="800" height="17" x="0" y="11373" class="color3"/><use y="11373" xlink:href="#g83"/><rect width="392" height="17" x="0" y="11390" class="color3"/><use y="11390" xlink:href="#g84"/><use y="11407" xlink:href="#g85"/><use y="11424" xlink:href="#g86"/><use y="11441" xlink:href="#g87"/><rect width="8" height="17" x="0" y="11458" class="foreground"/><use y="11458" xlink:href="#g14"/></g><g><use y="11492" xlink:href="#g64"/><use y="11509" xlink:href="#g65"/><use y="11526" xlink:href="#g66"/><use y="11543" xlink:href="#g67"/><use y="11560" xlink:href="#g68"/><rect width="560" height="17" x="200" y="11577" class="color3"/><use y="11577" xlink:href="#g69"/><use y="11594" xlink:href="#g70"/><use y="11611" xlink:href="#g71"/><rect width="576" height="17" x="224" y="11628" class="color3"/><use y="11628" xlink:href="#g72"/><rect width="800" height="17" x="0" y="11645" class="color3"/><use y="11645" xlink:href="#g73"/><rect width="424" height="17" x="0" y="11662" class="color3"/><use y="11662" xlink:href="#g74"/><use y="11679" xlink:href="#g75"/><use y="11696" xlink:href="#g76"/><use y="11713" xlink:href="#g77"/><rect width="544" height="17" x="256" y="11730" class="color3"/><use y="11730" xlink:href="#g78"/><rect width="800" height="17" x="0" y="11747" class="color3"/><use y="11747" xlink:href="#g79"/><rect width="488" height="17" x="0" y="11764" class="color3"/><use y="11764" xlink:href="#g80"/><use y="11781" xlink:href="#g81"/><rect width="592" height="17" x="208" y="11798" class="color3"/><use y="11798" xlink:href="#g82"/><rect width="800" height="17" x="0" y="11815" class="color3"/><use y="11815" xlink:href="#g83"/><rect width="392" height="17" x="0" y="11832" class="color3"/><use y="11832" xlink:href="#g84"/><use y="11849" xlink:href="#g85"/><use y="11866" xlink:href="#g86"/><use y="11883" xlink:href="#g87"/><rect width="8" height="17" x="16" y="11900" class="foreground"/><use y="11900" xlink:href="#g88"/></g><g><use y="11934" xlink:href="#g65"/><use y="11951" xlink:href="#g66"/><use y="11968" xlink:href="#g67"/><use y="11985" xlink:href="#g68"/><rect width="560" height="17" x="200" y="12002" class="color3"/><use y="12002" xlink:href="#g69"/><use y="12019" xlink:href="#g70"/><use y="12036" xlink:href="#g71"/><rect width="576" height="17" x="224" y="12053" class="color3"/><use y="12053" xlink:href="#g72"/><rect width="800" height="17" x="0" y="12070" class="color3"/><use y="12070" xlink:href="#g73"/><rect width="424" height="17" x="0" y="12087" class="color3"/><use y="12087" xlink:href="#g74"/><use y="12104" xlink:href="#g75"/><use y="12121" xlink:href="#g76"/><use y="12138" xlink:href="#g77"/><rect width="544" height="17" x="256" y="12155" class="color3"/><use y="12155" xlink:href="#g78"/><rect width="800" height="17" x="0" y="12172" class="color3"/><use y="12172" xlink:href="#g79"/><rect width="488" height="17" x="0" y="12189" class="color3"/><use y="12189" xlink:href="#g80"/><use y="12206" xlink:href="#g81"/><rect width="592" height="17" x="208" y="12223" class="color3"/><use y="12223" xlink:href="#g82"/><rect width="800" height="17" x="0" y="12240" class="color3"/><use y="12240" xlink:href="#g83"/><rect width="392" height="17" x="0" y="12257" class="color3"/><use y="12257" xlink:href="#g84"/><use y="12274" xlink:href="#g85"/><use y="12291" xlink:href="#g86"/><use y="12308" xlink:href="#g87"/><use y="12325" xlink:href="#g89"/><rect width="8" height="17" x="16" y="12342" class="foreground"/><use y="12342" xlink:href="#g1"/></g><g><use y="12376" xlink:href="#g66"/><use y="12393" xlink:href="#g67"/><use y="12410" xlink:href="#g68"/><rect width="560" height="17" x="200" y="12427" class="color3"/><use y="12427" xlink:href="#g69"/><use y="12444" xlink:href="#g70"/><use y="12461" xlink:href="#g71"/><rect width="576" height="17" x="224" y="12478" class="color3"/><use y="12478" xlink:href="#g72"/><rect width="800" height="17" x="0" y="12495" class="color3"/><use y="12495" xlink:href="#g73"/><rect width="424" height="17" x="0" y="12512" class="color3"/><use y="12512" xlink:href="#g74"/><use y="12529" xlink:href="#g75"/><use y="12546" xlink:href="#g76"/><use y="12563" xlink:href="#g77"/><rect width="544" height="17" x="256" y="12580" class="color3"/><use y="12580" xlink:href="#g78"/><rect width="800" height="17" x="0" y="12597" class="color3"/><use y="12597" xlink:href="#g79"/><rect width="488" height="17" x="0" y="12614" class="color3"/><use y="12614" xlink:href="#g80"/><use y="12631" xlink:href="#g81"/><rect width="592" height="17" x="208" y="12648" class="color3"/><use y="12648" xlink:href="#g82"/><rect width="800" height="17" x="0" y="12665" class="color3"/><use y="12665" xlink:href="#g83"/><rect width="392" height="17" x="0" y="12682" class="color3"/><use y="12682" xlink:href="#g84"/><use y="12699" xlink:href="#g85"/><use y="12716" xlink:href="#g86"/><use y="12733" xlink:href="#g87"/><use y="12750" xlink:href="#g89"/><use y="12767" xlink:href="#g90"/><rect width="8" height="17" x="0" y="12784" class="foreground"/><use y="12784" xlink:href="#g14"/></g></g></svg></svg>